<?xml version="1.0" standalone="no"?>
<!DOCTYPE svg PUBLIC "-//W3C//DTD SVG 20010904//EN"
 "http://www.w3.org/TR/2001/REC-SVG-20010904/DTD/svg10.dtd">
<svg version="1.0" xmlns="http://www.w3.org/2000/svg"
 width="600.000000pt" height="558.000000pt" viewBox="0 0 600.000000 558.000000"
 preserveAspectRatio="xMidYMid meet">

<g transform="translate(0.000000,558.000000) scale(0.100000,-0.100000)"
fill="#FFFFFF" stroke="none">
<path d="M2690 4644 c-58 -7 -202 -17 -320 -22 -250 -9 -264 -14 -317 -100
-39 -65 -64 -160 -109 -400 -34 -183 -77 -360 -95 -394 -14 -27 -74 -23 -266
18 -267 56 -343 44 -343 -57 0 -120 145 -185 440 -196 l155 -6 0 -257 0 -258
-47 -6 c-57 -8 -91 -43 -82 -85 45 -187 123 -410 175 -495 36 -60 39 -71 39
-139 0 -105 29 -206 109 -375 38 -81 97 -228 131 -327 135 -390 205 -470 500
-574 136 -48 183 -51 283 -15 45 16 121 31 202 40 211 23 278 67 379 250 27
49 78 130 112 179 81 119 105 167 149 310 21 66 64 181 97 255 33 74 76 185
95 245 19 61 52 148 74 195 45 100 86 223 124 373 25 101 26 110 11 132 -9 14
-27 27 -40 31 -22 5 -23 7 -23 137 1 73 -3 168 -7 211 l-8 79 221 -7 c211 -7
223 -7 264 13 81 39 102 122 46 185 -51 59 -118 78 -304 86 -226 10 -236 17
-249 160 -19 197 -71 449 -123 594 -38 105 -75 153 -140 183 -50 23 -76 26
-296 39 -303 17 -698 16 -837 -2z m-338 -1208 c124 -25 284 -53 355 -62 175
-23 525 -22 991 1 288 14 375 16 385 6 8 -8 13 -74 15 -209 l4 -198 -203 0
c-112 0 -292 -7 -399 -14 -293 -22 -713 -19 -940 5 -135 15 -254 20 -441 20
l-257 0 -6 44 c-8 58 -7 409 1 440 l6 24 131 -6 c102 -3 182 -15 358 -51z
m704 -670 c17 -13 19 -32 24 -233 6 -248 8 -255 89 -346 86 -98 81 -141 -20
-178 -37 -14 -83 -41 -111 -66 -27 -24 -55 -43 -63 -43 -29 0 -70 22 -102 56
-30 30 -40 34 -88 34 -46 0 -56 4 -74 26 -36 46 -26 90 48 203 49 76 58 105
71 238 6 55 23 145 38 199 26 95 29 99 62 111 48 16 102 16 126 -1z m109 -207
c69 -240 157 -368 277 -404 149 -44 350 2 484 111 l53 43 -15 -48 c-23 -78
-38 -118 -99 -256 -32 -71 -79 -197 -106 -279 -44 -134 -57 -161 -132 -275
-46 -69 -103 -161 -127 -204 -94 -166 -161 -210 -350 -228 -78 -7 -142 -20
-200 -40 -46 -16 -102 -29 -125 -29 -56 0 -300 89 -369 135 -117 78 -174 174
-276 470 -34 99 -92 245 -130 325 -88 190 -101 228 -107 334 l-6 89 44 -30
c98 -68 255 -90 409 -59 183 37 257 101 360 311 65 131 110 210 110 193 0 -4
-9 -40 -20 -80 -11 -40 -24 -116 -30 -168 -16 -152 -26 -182 -92 -278 -16 -23
-34 -56 -40 -73 -6 -18 -29 -48 -50 -67 -44 -40 -78 -102 -98 -177 -7 -27 -28
-89 -46 -137 -41 -107 -43 -162 -9 -235 13 -29 29 -53 35 -53 7 0 10 3 8 8
-57 110 -59 153 -15 272 20 52 45 127 56 167 16 54 32 83 65 120 l44 48 7 -28
c11 -42 50 -67 104 -67 39 0 52 -5 76 -30 33 -35 83 -60 119 -60 17 0 42 15
70 40 24 23 72 52 107 65 34 14 70 32 79 40 15 13 19 13 37 -8 11 -12 28 -37
37 -54 9 -18 21 -33 26 -33 16 0 12 14 -22 65 -47 69 -56 87 -63 117 -3 15
-30 55 -60 89 -77 86 -85 119 -85 348 1 216 5 217 65 10z"/>
<path d="M2612 3285 c-63 -18 -112 -42 -112 -55 0 -13 0 -13 64 16 71 32 138
34 256 5 106 -26 132 -26 212 -1 101 32 168 35 298 11 115 -21 186 -26 228
-15 42 12 22 24 -30 18 -35 -4 -95 1 -175 15 -157 27 -194 27 -314 -6 l-101
-27 -96 22 c-140 31 -171 33 -230 17z"/>
<path d="M2965 3178 c-67 -16 -111 -19 -265 -19 -158 1 -197 -2 -265 -19 -88
-24 -98 -28 -90 -40 3 -4 33 2 67 13 55 19 88 21 268 23 170 1 221 5 297 23
115 26 155 26 283 1 102 -20 218 -25 304 -14 89 13 45 24 -71 18 -96 -5 -137
-2 -223 15 -128 26 -200 25 -305 -1z"/>
<path d="M3105 3069 c-69 -23 -135 -27 -256 -15 -68 7 -102 5 -162 -8 -68 -15
-97 -29 -85 -41 2 -2 35 5 73 16 81 22 116 23 234 8 82 -11 91 -10 186 16 86
24 112 27 185 21 47 -3 95 -8 108 -12 12 -4 22 -2 22 4 0 16 -92 32 -173 31
-42 0 -97 -9 -132 -20z"/>
<path d="M2246 1923 c-7 -48 -8 -181 0 -210 14 -50 19 -17 19 112 0 134 -7
170 -19 98z"/>
<path d="M2355 1868 c-3 -46 -13 -125 -21 -175 -8 -51 -14 -114 -14 -140 0
-57 26 -183 40 -197 18 -18 20 -1 5 48 -25 82 -28 164 -12 271 23 144 32 275
19 275 -5 0 -13 -37 -17 -82z"/>
<path d="M2605 1853 c-9 -32 -33 -94 -52 -137 -36 -80 -54 -166 -36 -166 6 0
13 20 16 45 4 25 20 71 36 102 24 49 71 184 71 207 0 3 -4 6 -9 6 -5 0 -17
-26 -26 -57z"/>
<path d="M2665 1848 c-4 -24 -22 -77 -40 -118 -35 -77 -56 -180 -37 -180 5 0
13 21 17 48 3 26 21 81 40 122 34 78 54 170 36 170 -5 0 -12 -19 -16 -42z"/>
<path d="M3199 1865 c-3 -6 -4 -61 -1 -122 3 -92 7 -113 19 -113 13 0 14 14 8
95 -7 101 -18 156 -26 140z"/>
<path d="M3250 1788 c0 -93 8 -148 21 -148 10 0 -1 212 -12 225 -5 5 -9 -27
-9 -77z"/>
<path d="M3280 1863 c1 -5 7 -35 15 -68 8 -33 15 -83 15 -112 0 -46 9 -71 22
-58 7 7 -9 157 -21 203 -7 23 -16 42 -21 42 -6 0 -10 -3 -10 -7z"/>
<path d="M3334 1823 c3 -26 9 -85 13 -130 3 -51 10 -80 16 -76 10 6 4 136 -9
216 -10 55 -28 47 -20 -10z"/>
<path d="M3374 1854 c17 -56 26 -116 26 -176 0 -39 4 -68 10 -68 14 0 11 142
-3 204 -7 27 -18 51 -26 54 -9 3 -11 -1 -7 -14z"/>
<path d="M3430 1867 c0 -2 9 -29 19 -60 43 -123 51 -308 20 -430 -10 -43 -8
-69 6 -55 12 12 35 166 35 238 0 119 -40 298 -68 308 -7 2 -12 2 -12 -1z"/>
<path d="M2705 1845 c-1 -5 -12 -46 -25 -90 -27 -99 -38 -191 -22 -181 7 4 12
20 12 36 0 15 9 57 20 92 10 35 24 81 29 103 9 32 9 22 4 -45 -11 -131 -6
-198 11 -179 2 2 7 66 11 141 l7 137 -22 -2 c-12 -1 -23 -6 -25 -12z"/>
<path d="M3033 1769 c6 -98 20 -154 37 -144 6 4 6 16 -1 33 -6 15 -13 64 -16
110 -3 45 -11 85 -16 89 -7 4 -8 -26 -4 -88z"/>
<path d="M3084 1829 c3 -16 9 -79 12 -140 4 -62 11 -109 17 -109 10 0 3 214
-9 258 -10 34 -27 27 -20 -9z"/>
<path d="M3135 1838 c4 -13 9 -67 12 -120 5 -96 21 -135 25 -60 4 97 -13 202
-34 202 -6 0 -8 -9 -3 -22z"/>
<path d="M3640 1855 c-4 -20 2 -180 6 -184 11 -11 16 14 15 77 0 58 -16 138
-21 107z"/>
<path d="M2898 1845 c-3 -3 -1 -29 3 -58 4 -28 11 -78 14 -109 4 -32 11 -58
16 -58 12 0 11 15 -2 125 -10 85 -18 112 -31 100z"/>
<path d="M2444 1803 c-29 -69 -54 -167 -45 -176 6 -6 14 8 21 34 9 38 31 102
55 162 14 35 -15 16 -31 -20z"/>
<path d="M2774 1818 c3 -13 6 -71 6 -130 0 -65 4 -108 10 -108 11 0 14 217 4
244 -9 25 -27 19 -20 -6z"/>
<path d="M2974 1809 c3 -17 6 -76 6 -130 0 -59 4 -99 10 -99 11 0 14 199 4
238 -10 34 -27 27 -20 -9z"/>
<path d="M2840 1720 c0 -60 4 -110 9 -110 9 0 22 187 14 207 -15 37 -23 1 -23
-97z"/>
<path d="M3558 1795 c-3 -3 -2 -23 3 -43 5 -20 9 -63 9 -94 0 -54 11 -80 25
-59 7 13 -13 183 -24 194 -4 4 -10 5 -13 2z"/>
<path d="M2980 1529 c-25 -4 -105 -8 -178 -9 -136 0 -183 -10 -211 -43 -19
-24 0 -21 44 4 33 20 46 21 128 16 59 -4 129 -1 192 8 55 8 171 15 258 15 98
0 157 4 157 10 0 12 -323 11 -390 -1z"/>
</g>
</svg> 