<?xml version="1.0" standalone="no"?>
<!DOCTYPE svg PUBLIC "-//W3C//DTD SVG 20010904//EN"
 "http://www.w3.org/TR/2001/REC-SVG-20010904/DTD/svg10.dtd">
<svg version="1.0" xmlns="http://www.w3.org/2000/svg"
 width="320.000000pt" height="320.000000pt" viewBox="0 0 320.000000 320.000000"
 preserveAspectRatio="xMidYMid meet">

<g transform="translate(0.000000,320.000000) scale(0.100000,-0.100000)"
fill="#000000" stroke="none">
<path d="M1440 3194 c-108 -13 -237 -40 -329 -70 -564 -184 -972 -649 -1088
-1239 -24 -126 -24 -444 0 -570 85 -430 335 -811 687 -1047 166 -111 404 -207
605 -244 140 -26 430 -26 570 0 656 122 1162 628 1292 1291 24 126 24 444 0
570 -85 432 -331 807 -688 1047 -157 106 -386 200 -578 239 -93 19 -386 33
-471 23z m461 -73 c189 -38 380 -115 531 -214 370 -241 610 -597 695 -1032 24
-127 24 -424 -1 -555 -122 -634 -611 -1123 -1246 -1246 -144 -28 -438 -25
-580 5 -636 135 -1102 609 -1227 1246 -24 127 -24 424 1 555 81 419 319 777
677 1016 199 133 435 217 699 248 81 10 358 -4 451 -23z"/>
<path d="M2771 2178 c-29 -198 -73 -301 -143 -339 -27 -15 -51 17 -43 58 5 28
1 37 -21 58 -55 51 -110 51 -389 0 -49 -9 -130 -18 -180 -20 -147 -5 -225 -28
-259 -77 -15 -21 -24 -23 -148 -24 l-133 -2 -35 32 c-19 18 -48 38 -65 44 -47
17 -140 33 -156 27 -18 -7 -135 7 -294 35 -242 42 -325 22 -325 -76 0 -93 -68
-70 -124 42 -30 59 -42 104 -53 202 -3 29 -10 55 -14 58 -12 7 -59 -99 -59
-133 0 -14 -6 -31 -14 -37 -7 -6 -16 -23 -20 -37 -5 -23 -1 -29 27 -42 43 -21
75 -56 88 -98 6 -19 15 -124 19 -234 4 -110 11 -212 15 -227 9 -34 -1 -35 -40
-3 -29 24 -30 27 -27 102 2 58 7 85 22 104 20 28 20 55 0 131 -19 70 -45 111
-89 140 l-41 27 0 -30 c0 -22 7 -32 25 -41 29 -13 85 -117 85 -157 0 -15 -7
-37 -16 -50 -19 -27 -36 -165 -24 -196 9 -24 55 -74 89 -97 20 -14 26 -32 38
-118 8 -56 13 -103 11 -105 -9 -9 -71 15 -84 32 -7 10 -14 32 -14 48 -1 51
-39 185 -61 217 -22 30 -28 51 -55 173 -9 39 -18 72 -21 75 -13 11 8 -242 23
-282 8 -24 23 -79 33 -124 9 -44 28 -103 42 -130 24 -47 34 -55 119 -94 9 -4
24 -50 40 -122 14 -63 33 -126 41 -139 27 -41 108 -127 152 -161 38 -30 40
-31 26 -8 -117 184 -135 231 -169 455 -6 39 -13 84 -16 100 -14 88 -44 422
-44 498 0 76 2 87 18 87 15 0 17 -11 18 -78 2 -153 75 -262 212 -318 56 -23
86 -28 185 -32 167 -6 252 20 353 112 89 80 142 172 174 304 11 48 14 51 55
61 56 14 121 13 165 -3 31 -11 36 -18 50 -77 38 -146 109 -254 220 -328 75
-51 154 -71 279 -71 266 0 421 135 421 367 0 56 2 63 20 63 24 0 25 -14 10
-193 -42 -522 -82 -727 -166 -855 -20 -31 -54 -83 -75 -115 l-39 -58 31 18
c17 10 66 52 109 93 72 69 79 81 103 155 15 44 32 115 40 158 l13 78 49 23
c81 38 104 76 131 218 8 44 24 92 34 107 36 48 80 351 52 351 -12 0 -46 -100
-57 -166 -10 -61 -26 -107 -47 -136 -24 -35 -45 -104 -57 -192 -11 -78 -28
-100 -80 -110 -27 -5 -32 -3 -27 10 5 14 12 62 20 149 2 21 20 48 64 92 l62
61 -5 81 c-2 48 -11 96 -22 118 -9 21 -16 51 -14 68 5 48 44 118 81 143 47 31
63 58 55 90 l-6 26 -19 -29 c-10 -17 -34 -38 -53 -48 -24 -13 -41 -33 -54 -65
-49 -112 -55 -167 -23 -210 14 -20 20 -46 22 -95 2 -67 2 -69 -37 -105 l-38
-36 7 104 c5 58 9 159 11 225 4 152 24 219 75 252 78 49 92 64 85 92 -9 34
-13 37 -27 23 -24 -24 -31 -12 -25 42 5 46 1 64 -23 115 -16 34 -31 61 -33 61
-2 0 -9 -37 -16 -82z m-1776 -334 c143 -27 213 -31 370 -21 39 2 40 1 45 -33
7 -43 -3 -88 -36 -158 -13 -29 -24 -55 -24 -57 0 -3 -11 -23 -24 -44 -14 -21
-22 -41 -19 -45 9 -8 -18 -37 -28 -30 -5 3 -8 1 -7 -4 5 -15 -61 -65 -77 -58
-8 3 -14 0 -12 -6 1 -7 -9 -13 -23 -14 -14 -2 -52 -10 -85 -19 -90 -23 -237
-22 -310 4 -95 34 -162 99 -185 180 -11 40 -13 146 -4 202 10 62 54 99 144
125 56 16 89 14 275 -22z m1479 15 c25 -7 55 -26 78 -49 34 -37 37 -44 43
-123 16 -197 -76 -314 -271 -345 -53 -9 -93 -9 -150 -1 -44 6 -95 12 -114 14
-19 2 -34 8 -32 14 1 8 -7 9 -25 5 -21 -6 -25 -4 -20 9 4 12 2 14 -10 10 -8
-3 -18 -2 -22 3 -3 5 -18 17 -33 27 -16 10 -28 24 -28 33 0 9 -5 12 -12 8 -7
-4 -10 -4 -6 1 5 5 -2 22 -15 39 -39 52 -107 219 -107 262 0 64 8 70 83 56 35
-7 91 -13 123 -13 33 -1 48 -4 34 -6 -40 -6 -110 -45 -131 -71 -36 -47 -17
-57 34 -18 38 28 102 50 122 42 8 -3 15 -14 15 -24 0 -28 33 -53 77 -59 47 -6
93 25 93 63 0 21 5 24 35 24 40 0 81 -16 112 -43 35 -31 49 -16 19 20 -35 41
-97 61 -218 69 -54 4 -98 10 -98 13 0 4 48 15 108 25 59 10 125 22 147 26 45
10 108 5 169 -11z m-785 -54 c7 -7 -27 -9 -102 -6 -62 2 -104 6 -93 10 28 11
184 7 195 -4z"/>
<path d="M870 1780 c-50 -17 -90 -49 -90 -71 0 -15 21 -10 38 10 19 21 72 41
112 41 22 0 29 -6 36 -32 5 -18 21 -39 35 -47 49 -28 139 11 139 61 0 33 71
14 157 -42 35 -23 39 -3 7 31 -52 56 -99 69 -247 69 -103 -1 -144 -5 -187 -20z"/>
<path d="M1301 1241 c-41 -40 -52 -65 -53 -121 -1 -36 4 -56 18 -71 26 -30 82
-53 98 -40 13 11 40 3 129 -37 65 -29 127 -28 186 2 25 13 58 27 73 30 52 12
78 64 28 58 -18 -2 -21 1 -15 15 13 28 18 83 9 83 -5 0 -21 -27 -37 -59 -33
-72 -72 -102 -138 -109 -82 -8 -139 31 -180 122 -18 42 -23 47 -31 32 -7 -12
-7 -26 1 -43 16 -34 14 -40 -11 -39 -16 1 -23 -4 -22 -16 2 -27 -11 -22 -41
14 -24 28 -26 38 -21 77 3 25 17 62 31 83 14 21 25 40 25 43 0 13 -22 2 -49
-24z"/>
<path d="M1820 1260 c0 -5 11 -26 25 -46 18 -27 25 -50 25 -87 0 -44 -4 -53
-36 -82 -22 -21 -31 -35 -24 -40 18 -11 83 29 104 64 16 28 17 37 6 76 -17 60
-100 156 -100 115z"/>
<path d="M1384 954 c-184 -41 -271 -77 -346 -146 -57 -52 -129 -199 -111 -226
8 -13 4 -28 -14 -64 -14 -26 -23 -55 -21 -65 3 -18 152 -99 235 -127 l41 -14
-20 45 c-35 80 -7 209 53 241 28 14 165 11 302 -7 64 -9 109 -9 165 -2 42 6
125 12 183 13 95 3 109 1 129 -17 53 -48 69 -176 30 -243 -12 -19 -19 -37 -16
-39 7 -7 146 46 211 80 53 29 60 36 63 66 2 21 -5 50 -20 78 -19 36 -21 45 -9
52 12 8 10 17 -9 58 -12 26 -31 66 -40 89 -32 74 -141 153 -265 193 -96 31
-146 35 -253 21 -81 -10 -112 -10 -188 2 -50 8 -95 13 -100 12z m-23 -161
c-11 -21 -25 -45 -31 -53 -20 -27 1 32 24 67 28 42 32 34 7 -14z m466 -41 c11
-44 -4 -32 -31 23 -14 31 -26 59 -26 62 0 14 51 -63 57 -85z m-270 -14 c-2
-13 -4 -5 -4 17 -1 22 1 32 4 23 2 -10 2 -28 0 -40z m-90 0 c-3 -7 -5 -2 -5
12 0 14 2 19 5 13 2 -7 2 -19 0 -25z m720 -290 c-3 -7 -5 -2 -5 12 0 14 2 19
5 13 2 -7 2 -19 0 -25z"/>
<path d="M1466 490 c-21 -6 -53 -17 -72 -26 -35 -17 -79 -75 -72 -96 3 -7 -1
-32 -8 -54 l-12 -42 36 -7 c110 -21 358 -27 465 -12 l59 9 -7 36 c-4 21 -9 49
-10 63 -3 41 -43 89 -94 111 -53 23 -221 34 -285 18z"/>
</g>
</svg>
